<mxfile host="app.diagrams.net" modified="2023-05-22T19:56:55.814Z" agent="Mozilla/5.0 (Windows NT 10.0; Win64; x64) AppleWebKit/537.36 (KHTML, like Gecko) Chrome/113.0.0.0 Safari/537.36" version="21.3.0" etag="0BGj_woIkHs0CaeF3TYE" type="github">
  <diagram name="PÃ¡gina-1" id="N3bgDsUxZ4rRhhgLv5kX">
    <mxGraphModel>
      <root>
        <mxCell id="0" />
        <mxCell id="1" parent="0" />
      </root>
    </mxGraphModel>
  </diagram>
</mxfile>
